<?xml version="1.0" encoding="UTF-8"?>
<svg fill="#2c4477" viewBox="0 0 650 480" xmlns="http://www.w3.org/2000/svg">
 <g transform="rotate(90 324 238.06)" fill="#2c4477">
  <path d="m84.5-86.5v649.12h479v-649.12h-208.25c-6.4079 17.071-18.724 28.637-32.866 28.637-14.141 0-26.458-11.567-32.866-28.637h-205.02zm25.848 34.603h15.347c3.1325 0 5.6543 3.726 5.6543 8.3533v39.376c0 4.6272-2.5218 8.3519-5.6543 8.3519h-15.347c-3.1324 0-5.6542-3.7247-5.6542-8.3519v-39.376c0-4.6272 2.5218-8.3533 5.6542-8.3533zm60.127 0h15.347c3.1324 0 5.6548 3.726 5.6548 8.3533v39.376c0 4.6272-2.5223 8.3519-5.6548 8.3519h-15.347c-3.1324 0-5.6539-3.7247-5.6539-8.3519v-39.376c0-4.6272 2.5214-8.3533 5.6539-8.3533zm60.102 0h15.347c3.1324 0 5.6548 3.726 5.6548 8.3533v39.376c0 4.6272-2.5224 8.3519-5.6548 8.3519h-15.347c-3.1324 0-5.6539-3.7247-5.6539-8.3519v-39.376c0-4.6272 2.5214-8.3533 5.6539-8.3533zm60.128 0h15.347c3.1324 0 5.6538 3.726 5.6538 8.3533v39.376c0 4.6272-2.5214 8.3519-5.6538 8.3519h-15.347c-3.1325 0-5.6548-3.7247-5.6548-8.3519v-39.376c0-4.6272 2.5223-8.3533 5.6548-8.3533zm60.127 0h15.347c3.1325 0 5.6548 3.726 5.6548 8.3533v39.376c0 4.6272-2.5224 8.3519-5.6548 8.3519h-15.347c-3.1325 0-5.654-3.7247-5.654-8.3519v-39.376c0-4.6272 2.5214-8.3533 5.654-8.3533zm60.128 0h15.347c3.1324 0 5.6538 3.726 5.6538 8.3533v39.376c0 4.6272-2.5214 8.3519-5.6538 8.3519h-15.347c-3.1326 0-5.6548-3.7247-5.6548-8.3519v-39.376c0-4.6272 2.5222-8.3533 5.6548-8.3533zm60.102 0h15.347c3.1326 0 5.655 3.726 5.655 8.3533v39.376c0 4.6272-2.5223 8.3519-5.655 8.3519h-15.347c-3.1324 0-5.6539-3.7247-5.6539-8.3519v-39.376c0-4.6272 2.5214-8.3533 5.6539-8.3533zm60.128 0h15.347c3.1326 0 5.6539 3.726 5.6539 8.3533v39.376c0 4.6272-2.5214 8.3519-5.6539 8.3519h-15.347c-3.1334 0-5.6548-3.7247-5.6548-8.3519v-39.376c0-4.6272 2.5214-8.3533 5.6548-8.3533zm-424.88 66.821h435.38c6.2649 0 11.309 7.4507 11.309 16.705v409.28c0 9.2559-5.0438 16.705-11.309 16.705h-435.38c-6.2649 0-11.309-7.4494-11.309-16.705v-409.28c0-9.2545 5.0437-16.705 11.309-16.705zm3.231 455.81h15.347c3.1325 0 5.6544 3.7246 5.6544 8.3518v39.377c0 4.6271-2.5218 8.3531-5.6544 8.3531h-15.347c-3.1324 0-5.6542-3.726-5.6542-8.3531v-39.377c0-4.6272 2.5218-8.3518 5.6542-8.3518zm60.127 0h15.347c3.1324 0 5.6548 3.7246 5.6548 8.3518v39.377c0 4.6271-2.5224 8.3531-5.6548 8.3531h-15.347c-3.1324 0-5.6538-3.726-5.6538-8.3531v-39.377c0-4.6272 2.5215-8.3518 5.6538-8.3518zm60.102 0h15.347c3.1324 0 5.6548 3.7246 5.6548 8.3518v39.377c0 4.6271-2.5224 8.3531-5.6548 8.3531h-15.347c-3.1325 0-5.6539-3.726-5.6539-8.3531v-39.377c0-4.6272 2.5214-8.3518 5.6539-8.3518zm60.128 0h15.347c3.1325 0 5.6538 3.7246 5.6538 8.3518v39.377c0 4.6271-2.5213 8.3531-5.6538 8.3531h-15.347c-3.1325 0-5.6548-3.726-5.6548-8.3531v-39.377c0-4.6272 2.5223-8.3518 5.6548-8.3518zm60.127 0h15.347c3.1324 0 5.6548 3.7246 5.6548 8.3518v39.377c0 4.6271-2.5224 8.3531-5.6548 8.3531h-15.347c-3.1324 0-5.6538-3.726-5.6538-8.3531v-39.377c0-4.6272 2.5215-8.3518 5.6538-8.3518zm60.128 0h15.347c3.1324 0 5.6538 3.7246 5.6538 8.3518v39.377c0 4.6271-2.5214 8.3531-5.6538 8.3531h-15.347c-3.1324 0-5.6548-3.726-5.6548-8.3531v-39.377c0-4.6272 2.5223-8.3518 5.6548-8.3518zm60.102 0h15.347c3.1324 0 5.6539 3.7246 5.6539 8.3518v39.377c0 4.6271-2.5214 8.3531-5.6539 8.3531h-15.347c-3.1324 0-5.6548-3.726-5.6548-8.3531v-39.377c0-4.6272 2.5225-8.3518 5.6548-8.3518zm60.127 0h15.348c3.1324 0 5.6548 3.7246 5.6548 8.3518v39.377c0 4.6271-2.5225 8.3531-5.6548 8.3531h-15.348c-3.1325 0-5.6538-3.726-5.6538-8.3531v-39.377c0-4.6272 2.5213-8.3518 5.6538-8.3518z"/>
  <path d="m240.22-86.5v0.074974h-0.04982v16.445h-5.125v-16.445h-5.7295v34.753c0.40701-0.1377 0.826-0.22496 1.2616-0.22496h15.347c2.3987 0 4.4264 2.195 5.2506 5.2953h5.6289v-39.899h-5.7296v15.923h-5.1241v-15.923h-5.7304zm118.34 0v34.603h7.6224c2.4191 0 4.4652 2.2277 5.2765 5.3703h3.6851v-39.974h-5.7304v15.998h-5.1242v-15.998h-5.7295zm-273.8 0.075v16.37h5.7048v-16.37h-5.7048zm30.266 0v34.528h10.677c2.5537 0 4.6953 2.4704 5.4019 5.8924h0.50481v-40.421h-5.73v16.445h-5.1242v-16.445h-5.73zm401.08 0v16.37h5.7047v-16.37h-5.7047zm30.266 0v34.528h0.17706c2.553 0 4.6951 2.4704 5.402 5.8924h11.005v-40.421h-5.7297v16.445h-5.1242v-16.445h-5.7304zm-449.9 0.4104v16.034h-5.7301v23.976h5.7301v-23.604h5.7047v24.051h2.701c0.40727-2.4418 1.528-4.4555 3.0291-5.5189v-34.939h-11.435zm431.34 0v16.034h-5.7305v23.976h3.7109c0.35461-1.7206 1.067-3.2039 2.0196-4.251v-19.353h5.7045v17.711h5.7295v-34.118h-11.434zm-246.29 0.0368v16.407h5.7305v-16.407h-5.7305zm160.69 3.692c-3.0577 0.38312-4.6627 5.3308-4.5186 9.5462-0.31482 4.6749 1.0272 11.111 4.9727 10.477 4.2195-0.39536 5.1398-10.52 1.3632-12.865-1.3125-1.2025-4.8694 1.9414-3.3318-2.2741 0.99026-3.8174 5.521 0.98024 4.8463-4.0642-0.84814-0.55762-1.7739-0.84801-2.7014-0.82074-0.21689-0.016365-0.42737-0.025894-0.63034 0v-1.5e-5zm8.7585 0.1118c-0.81586 0.047722-1.6363 0.38309-2.347 1.0062-0.94876 6.5987 3.0041-0.066803 4.5436 3.8788 1.2155 2.7962 1.1398 6.6832 0.3027 9.658-0.87588 4.6736-4.9339-1.1902-4.922 3.2066 0.70413 3.6115 4.2585 2.4118 5.8809 0.89437 2.4929-2.934 2.6931-8.4624 1.9437-12.715-0.40607-3.7819-2.9524-6.0738-5.4019-5.9292zm-261.33 2.908c-0.93401 0.042259-1.8606 0.40628-2.575 1.3061-1.7858 2.1132-1.9898 6.9217 0.075684 8.7991-0.18091 1.0675-1.2635 2.9885-1.0346 4.7363-0.099686 2.7799 1.4979 5.2721 3.3576 5.3689 1.5598 0.52626 3.2561-0.74303 3.9372-2.8712 0.93309-2.2986 0.31009-5.9333-1.5644-6.6368 0.90262-0.29179 1.6151-1.3429 2.0194-2.5358 1.1601-3.0935-0.4033-7.0049-2.55-7.9429-0.52425-0.18133-1.1048-0.24815-1.6659-0.22359zm-31.831 0.075v4.9217h-15.953v7.7561h15.953v4.9217l5.1499-4.3996 5.149-4.3996-5.149-4.4009-5.1499-4.3996zm44.326 0.0368c-0.42456-0.004112-0.8528 0.11861-1.2377 0.37355-1.9668-0.61758-4.1809 1.0662-4.8463 3.9156-0.34702 1.5992-0.32948 3.8378 0.75772 4.8099 1.15 0.51261 1.1186 2.5045 0.22707 3.4302-1.258 1.4915-0.72266 4.4814 0.45407 5.7425 2.2113 2.1964 4.9654 1.137 7.4462 1.3797 0.03598-2.9285-0.018448-5.872-0.024918-8.8005-0.20952-2.5931 0.54544-5.1985 0.050766-7.7561-0.26767-1.9428-1.5561-3.0812-2.8269-3.0948zm-12.369 3.058c0.71254-0.024536 1.4324 0.50035 1.7416 1.6033 0.79367 1.7642-0.037857 4.5918-1.5653 4.3259-1.4527 0.24132-2.324-2.2973-1.7923-4.1023 0.20952-1.2148 0.9036-1.801 1.616-1.8269zm10.577 0.1868c1.9095-0.066795 2.897 3.5924 2.1199 5.8911-0.99492 0.55215-2.2003 0.3763-3.054-0.59579-1.544-1.4288-0.81862-5.0948 0.93405-5.2953zm147.31 3.5788c-0.27878 0.37627-0.57227 0.71985-0.85831 1.0825v21.814c1.0244-1.5324 2.4596-2.4622 4.0388-2.4622h1.6916v-20.434h-4.8721zm94.533 0.1131c2.0278 0.21815 2.3535 5.0035 0.88425 6.5618-2.9017 2.2046-3.8236-6.2155-0.88425-6.5618zm-178.59 1.6769v24.014h5.7295v-24.014h-5.7295zm11.889 0v24.014h5.7296v-24.014h-5.7296zm11.889 0v20.249c0.93402-1.0089 2.0812-1.6046 3.3318-1.6046h2.3978v-18.644h-5.7296zm11.889 0.8576v17.786h5.7296v-12.304c-2.0276-1.5706-3.9418-3.4111-5.7296-5.482zm-98.37 2.5358c1.4555 0.024559 2.4513 2.7908 1.5653 4.5863-0.84354 0.33673-1.7923 0.2645-2.575-0.33538-1.665-0.88345-0.85463-4.2387 0.70696-4.2142 0.10063-0.023178 0.20584-0.038193 0.30273-0.036812zm-11.005 0.1118c0.83894-0.17588 1.7646 0.96388 1.6659 2.349 0.15135 1.8514-1.3133 2.8249-2.3479 2.2755-1.3115-0.4908-0.97832-3.043-0.075684-3.9524 0.21779-0.39131 0.47807-0.61352 0.75772-0.67214zm150.75 2.1636c-1.8256 1.5052-3.7342 2.7963-5.7304 3.8406v13.908h5.7304v-17.748zm-29.483 4.4746v13.274h5.7047v-11.335c-1.953-0.42674-3.8624-1.0866-5.7047-1.9387zm17.594 1.7519c-1.855 0.46761-3.7673 0.73349-5.7046 0.78258v10.739h5.7046v-11.522z"/>
  <path d="m84.5-39.964v26.25h20.194v-26.25h-20.194zm46.85 0v26.25h33.472v-26.25h-33.472zm60.128 0v26.25h33.446v-26.25h-33.446zm60.102 0v26.25h33.471v-26.25h-33.471zm60.127 0v26.25h33.472v-26.25h-33.472zm60.128 0v26.25h33.471v-26.25h-33.471zm60.127 0v26.25h33.447v-26.25h-33.447zm60.103 0v26.25h33.471v-26.25h-33.471zm60.127 0v26.25h11.309v-26.25h-11.309z"/>
  <path d="m84.5 482.48v26.997h19.386v-26.997h-19.386zm46.042 0v26.997h33.472v-26.997h-33.472zm60.128 0v26.997h33.446v-26.997h-33.446zm60.102 0v26.997h33.471v-26.997h-33.471zm60.127 0v26.997h33.472v-26.997h-33.472zm60.128 0v26.997h33.471v-26.997h-33.471zm60.127 0v26.997h33.446v-26.997h-33.446zm60.102 0v26.997h33.472v-26.997h-33.472zm60.128 0v26.997h12.116v-26.997h-12.116z"/>
  <rect x="372.69" y="803.09" width="0" height="3.8562"/>
  <path d="m88.463 532.26v30.352h11.41v-30.352h-11.41zm16.559 0v30.352h7.4213v-30.352h-7.4213zm110.81 0v30.352h11.409v-30.352h-11.409zm16.559 0v30.352h7.4213v-30.352h-7.4213zm11.661 0v30.352h7.4213v-30.352h-7.4213zm153.47 0v30.352h7.4212v-30.352h-7.4212zm11.308 0v30.352h7.4214v-30.352h-7.4214zm10.905 0v30.352h11.409v-30.352h-11.409zm27.868 0v30.352h7.4213v-30.352h-7.4213zm11.309 0v30.352h7.4212v-30.352h-7.4212zm11.308 0v30.352h7.4222v-30.352h-7.4222zm63.006 0v30.352h7.4213v-30.352h-7.4213zm12.167 0v30.352h11.409v-30.352h-11.409z"/>
  <path d="m182.81 543.15c1.3217 0.16223 2.24-2.2006 1.7231-3.9047-0.45683-1.8896-2.4439-2.3614-3.2007-0.62579-0.73741 1.4766-0.33131 4.0859 0.98662 4.4568 0.1606 0.05719 0.32579 0.081726 0.49098 0.073669m1.8126 1.5282c1.6438 0.64081 2.3489 3.6784 1.7111 5.8707-0.48729 1.8827-1.8366 3.0281-3.1702 3.0376-1.5792 0.23975-3.4435-0.83185-3.9299-3.2502-0.47806-2.0043 0.025848-4.6779 1.449-5.4918 0.21043-0.64069-0.97279-0.60382-1.0909-1.3961-1.5182-2.4594-0.92018-7.0867 1.2294-8.3054 1.7166-0.85205 3.9132-0.77441 5.2099 1.3252 1.2598 2.2125 1.1103 6.1268-0.62668 7.7164-0.24364 0.21564-0.50758 0.38184-0.78172 0.49353zm-0.2565 3.7057c0.16336-1.8814-1.5847-3.1099-2.5353-1.9236-0.95895 1.0522-0.73561 3.7491 0.49834 4.1499 0.95432 0.46619 2.1569-0.65289 2.0369-2.2263zm-10.049-5.0866v-5.4058c-1.0937 0.13513-2.36-0.40356-3.2958 0.68726-0.65158 1.1301-0.58792 3.0497 0.11073 4.0928 0.91834 1.0198 2.1292 0.49206 3.1851 0.62579zm0 7.1152c-0.19846-1.3402 0.34607-2.8397-0.19752-4.0641-0.85095-0.26733-2.012-0.44714-2.7891 0.41589-0.74942 1.1042-0.3175 3.527 0.8242 3.587 0.7171 0.14172 1.4416 0.014893 2.1624 0.061157zm2.359 2.874c-2.1338-0.16223-4.3442 0.43628-6.4125-0.58081-1.1048-0.672-1.8228-2.4159-1.7231-4.1731-0.010117-1.6865 0.77344-3.5027 1.9862-3.6456 0.29164-0.39807-0.8528-0.25092-1.042-0.73474-1.0604-0.93945-1.5044-2.8591-1.3752-4.6111 0.048019-1.7736 0.78911-3.6318 2.0286-4.0245 1.9686-0.94495 4.0544-0.26465 6.0728-0.5686 1.0125 0.70081 0.19842 2.7117 0.46518 3.9838v14.355z"/>
  <path d="m361.25 552.07c-2.7245 0.73901-2.0488-4.882-3.7737-6.3328-2.5178-0.90649-1.45 6.63-3.8699 5.1454-1.5828-2.3285-0.1633-5.4645-0.19284-8.183-0.009277-2.5795-0.53815-5.2555 0.096863-7.7616 1.9741-2.2058 3.2967 2.9121 2.1328 4.8578 0.68948 3.7149 4.6045 0.43762 2.7088-2.3055-0.14307-4.0015 4.1421-2.8166 2.9773 0.9054-0.10245 3.85-0.3129 7.7058-0.07196 11.553 0.005615 0.7074 0.004669 1.4137-0.007416 2.1212zm-18.152-18.255h7.6982v18.255h-7.6982c-0.12-4.0192 3.5247-2.5618 4.7799-4.5236 0.89148-4.2169-4.3581-1.4098-3.6446-4.6857 1.0152-2.33 4.6331 0.31476 3.8568-3.9457-0.63953-3.2692-2.9312-1.6988-4.3617-2.3599-0.67197-0.47858-1.1851-1.7587-0.63037-2.7404zm-2.6654 3.1793c-2.2012-0.90399-3.3493 3.0416-3.3354 5.6907-0.34528 3.2406 2.2676 4.7335 2.2989 7.6239-0.4079 3.8132-4.2269 2.1704-4.1707-1.1669-0.35712-3.6661 1.2654-7.8217-0.44577-11.122-2.4928-1.1725-0.72906-6.2263 1.4453-4.4062 1.545-0.10083 4.5981-0.043579 4.2077 3.3811zm-12.714 5.9292c-0.91464 2.8577-1.7295-3.0537-0.3027-0.94898 0.12274 0.27954 0.33322 0.57544 0.3027 0.94898zm-1.0262 6.4202c2.0608-1.9033 1.4111-5.9618 2.0848-8.907 0.11627-3.2079-3.9972-3.3892-3.8366-0.066711 0.35626 3.0187-0.48273 7.118 1.7518 8.9737zm4.0811-6.4202c0.34058 3.789-0.81033 8.6737-3.6206 9.5082-2.4292 0.35034-4.7015-3.1454-4.4163-6.7107-0.50943-4.124-0.14951-9.1685 2.3166-11.819 2.4743-1.7736 5.6418 1.463 5.545 5.4738 0.13193 1.1727 0.16434 2.3627 0.17532 3.5475zm-13.252 0c-0.91467 2.8577-1.7296-3.0537-0.30273-0.94898 0.12265 0.27954 0.33215 0.57544 0.30273 0.94898zm-1.0264 6.4202c2.0609-1.9033 1.4112-5.9618 2.0849-8.907 0.11539-3.2079-3.9972-3.3892-3.8375-0.066711 0.35632 3.0187-0.48273 7.118 1.7526 8.9737zm4.0803-6.4202c0.34152 3.789-0.81039 8.6737-3.6197 9.5082-2.4292 0.35034-4.7015-3.1454-4.4163-6.7107-0.51032-4.124-0.14948-9.1685 2.3165-11.819 2.4735-1.7736 5.6419 1.463 5.5441 5.4738 0.13287 1.1727 0.16425 2.3627 0.17532 3.5475z"/>
  <path d="m146.7 522.26c1.5838-1.2938 3.7683-1.2978 5.1509 0.56873 1.1832 1.7792 1.3429 4.5413 0.95432 6.8617-0.35996 2-1.556 3.6443-2.9709 3.846-0.96907 0.22229-1.975-0.027222-2.8648-0.62573-0.48366-0.64612-0.35811-2.2605-0.074783-2.7034 0.922 0.89014 2.2261 1.3674 3.1869 0.33106 0.80942-0.95276 0.90263-2.6668 0.75957-4.0778-0.12091-1.1997-0.70235-2.3394-1.5487-2.5343-0.68576-0.2113-1.4121 0.008179-2.0203 0.50293-0.60268 1.0171-0.67834-0.44727-0.57222-1.1356 0.002792-0.34497 0.004608-0.6886 0-1.0336zm-8.6654 0c1.5837-1.2938 3.7683-1.2978 5.1508 0.56873 1.1832 1.7792 1.3429 4.5413 0.9543 6.8617-0.36086 2-1.556 3.6443-2.9709 3.846-0.96906 0.22229-1.9751-0.027222-2.8648-0.62573-0.48352-0.64612-0.3579-2.2605-0.074768-2.7034 0.92203 0.89014 2.2261 1.3674 3.1869 0.33106 0.8094-0.95276 0.90262-2.6668 0.75957-4.0778-0.1209-1.1997-0.70238-2.3394-1.5487-2.5343-0.68573-0.2113-1.413 0.008179-2.0212 0.50293-0.60193 1.0171-0.67764-0.44727-0.57129-1.1356 0.001831-0.34497 0.004578-0.6886 0-1.0336z"/>
  <path d="m274.33 522.26c1.5828-1.2938 3.7674-1.2978 5.1499 0.56873 1.1832 1.7792 1.3429 4.5413 0.95438 6.8617-0.35998 2-1.5561 3.6443-2.97 3.846-0.97003 0.22229-1.976-0.027222-2.8657-0.62573-0.4827-0.64612-0.35709-2.2605-0.073822-2.7034 0.92102 0.89014 2.2261 1.3674 3.1869 0.33106 0.80939-0.95276 0.90179-2.6668 0.75864-4.0778-0.12091-1.1997-0.70236-2.3394-1.5487-2.5343-0.68472-0.2113-1.412 0.008179-2.0202 0.50293-0.60266 1.0171-0.67834-0.44727-0.5722-1.1356 0.002747-0.34497 0.004517-0.6886 8.54e-4 -1.0336zm-8.6663 0c1.5838-1.2938 3.7683-1.2978 5.1508 0.56873 1.1832 1.7792 1.3429 4.5413 0.95435 6.8617-0.35996 2-1.5561 3.6443-2.97 3.846-0.97003 0.22229-1.976-0.027222-2.8657-0.62573-0.48364-0.64612-0.35724-2.2605-0.073883-2.7034 0.92111 0.89014 2.2261 1.3674 3.1859 0.33106 0.80942-0.95276 0.90265-2.6668 0.75955-4.0778-0.12094-1.1997-0.70236-2.3394-1.5487-2.5343-0.68576-0.2113-1.412 0.008179-2.0203 0.50293-0.6026 1.0171-0.67841-0.44727-0.57224-1.1356 0.002747-0.34497 0.004608-0.6886 0-1.0336z"/>
 </g>
 <g font-family="Arial" font-size="24" stroke-width="0" text-anchor="middle">
  <text transform="matrix(32.912 0 0 10.249 -1451.5 -1228.1)" x="52" y="150.7874" fill="#7f003f" xml:space="preserve"/>
  <text transform="matrix(-36.996 0 0 -6.3786 22160 824.98)" x="590" y="104.885" stroke-dasharray="null" stroke-linecap="null" stroke-linejoin="null" xml:space="preserve"/>
 </g>
</svg>
