<svg id="bold" fill="#ffffff" enable-background="new 0 0 24 24" height="512" viewBox="0 0 24 24" width="512" xmlns="http://www.w3.org/2000/svg"><g><path d="m21 2.75c0-1.519-1.231-2.75-2.75-2.75h-12.5c-1.519 0-2.75 1.231-2.75 2.75v18.5c0 1.519 1.231 2.75 2.75 2.75h12.5c1.519 0 2.75-1.231 2.75-2.75zm-3 13.5c0 .965-.785 1.75-1.75 1.75h-8.5c-.965 0-1.75-.785-1.75-1.75v-4.75c0-.965.785-1.75 1.75-1.75h.75c.078 0 .152-.037.199-.099l.942-1.064c.332-.373.808-.587 1.308-.587h2.102c.499 0 .976.213 1.308.586l.902 1.016c.087.111.161.148.239.148h.75c.965 0 1.75.785 1.75 1.75z"/><circle cx="12" cy="13.5" r="2.5"/></g></svg>